<?xml version="1.0" encoding="utf-8"?>
<svg width="178" height="32" viewBox="3 -27 178 32" xmlns="http://www.w3.org/2000/svg">
  <path fill="#222020" d="M 32.451 -24.734 C 35.193 -27.475 39.626 -27.475 42.368 -24.734 L 45.346 -21.756 L 37.833 -14.242 L 34.888 -13.938 L 36.208 -12.652 L 20.403 3.154 C 17.661 5.895 13.228 5.895 10.486 3.154 L 7.508 0.175 L 14.852 -7.169 L 16.037 -5.984 L 16.341 -8.692 L 32.451 -24.734 Z"/>
  <path fill="#222020" d="M 39.525 -13.43 C 41.589 -15.495 44.906 -15.495 46.971 -13.43 L 49.712 -10.689 L 36.242 2.782 C 34.178 4.846 30.861 4.846 28.796 2.782 L 26.055 0.04 L 37.494 -11.399 L 38.747 -10.147 L 39.051 -12.922 L 39.525 -13.43 Z"/>
  <path fill="#222020" d="M 15.834 -23.482 C 17.898 -25.546 21.215 -25.546 23.28 -23.482 L 26.021 -20.74 L 15.326 -10.046 L 12.348 -9.707 L 13.668 -8.387 L 13.397 -8.116 C 11.333 -6.052 8.016 -6.052 5.951 -8.116 L 3.21 -10.858 L 15.834 -23.482 Z"/>
  <path fill="#222020" d="M 72.351 -12.015 C 73.322 -11.603 74.088 -10.978 74.648 -10.138 C 75.208 -9.298 75.488 -8.356 75.488 -7.311 C 75.488 -5.801 74.956 -4.513 73.891 -3.448 C 72.827 -2.384 71.539 -1.851 70.028 -1.851 L 61.488 -1.851 L 61.488 -21.451 L 69.385 -21.451 C 70.823 -21.451 72.064 -20.929 73.108 -19.885 C 74.135 -18.859 74.648 -17.626 74.648 -16.188 C 74.648 -14.36 73.882 -12.968 72.351 -12.015 Z M 69.385 -19.605 L 63.448 -19.605 L 63.448 -12.771 L 69.385 -12.771 C 70.28 -12.771 71.055 -13.098 71.708 -13.751 C 72.361 -14.443 72.688 -15.255 72.688 -16.188 C 72.688 -17.101 72.361 -17.903 71.708 -18.595 C 71.055 -19.268 70.28 -19.605 69.385 -19.605 Z M 63.448 -3.698 L 70.028 -3.698 C 70.999 -3.698 71.82 -4.043 72.491 -4.735 C 73.182 -5.426 73.528 -6.285 73.528 -7.311 C 73.528 -8.321 73.182 -9.169 72.491 -9.858 C 71.82 -10.569 70.999 -10.925 70.028 -10.925 L 63.448 -10.925 L 63.448 -3.698 Z M 80.808 -13.611 L 86.128 -13.611 C 87.732 -13.611 89.113 -13.033 90.271 -11.875 C 91.429 -10.717 92.008 -9.336 92.008 -7.731 C 92.008 -6.107 91.429 -4.716 90.271 -3.558 C 89.134 -2.42 87.753 -1.851 86.128 -1.851 L 78.848 -1.851 L 78.848 -21.451 L 90.328 -21.451 L 90.328 -19.605 L 80.808 -19.605 L 80.808 -13.611 Z M 80.808 -3.698 L 86.128 -3.698 C 87.21 -3.698 88.135 -4.09 88.902 -4.875 C 89.666 -5.677 90.048 -6.629 90.048 -7.731 C 90.048 -8.814 89.666 -9.756 88.902 -10.558 C 88.155 -11.363 87.23 -11.765 86.128 -11.765 L 80.808 -11.765 L 80.808 -3.698 Z M 100.548 -21.451 L 114.548 -21.451 L 114.548 -19.605 L 108.528 -19.605 L 108.528 -1.851 L 106.568 -1.851 L 106.568 -19.605 L 100.548 -19.605 Z M 124.571 -16.188 C 126.569 -16.188 128.268 -15.478 129.668 -14.058 C 131.085 -12.64 131.794 -10.905 131.794 -8.851 C 131.794 -6.798 131.085 -5.063 129.668 -3.645 C 128.268 -2.225 126.569 -1.515 124.571 -1.515 C 122.089 -1.515 120.203 -2.541 118.914 -4.595 L 118.914 3.749 L 117.068 3.749 L 117.068 -15.851 L 118.914 -15.851 L 118.914 -13.108 C 120.203 -15.162 122.089 -16.188 124.571 -16.188 Z M 120.511 -4.905 C 121.576 -3.841 122.882 -3.308 124.431 -3.308 C 125.98 -3.308 127.286 -3.841 128.351 -4.905 C 129.416 -6.005 129.948 -7.32 129.948 -8.851 C 129.948 -10.4 129.416 -11.707 128.351 -12.771 C 127.286 -13.854 125.98 -14.395 124.431 -14.395 C 122.882 -14.395 121.576 -13.854 120.511 -12.771 C 119.446 -11.707 118.914 -10.4 118.914 -8.851 C 118.914 -7.32 119.446 -6.005 120.511 -4.905 Z M 141.342 -16.188 C 143.433 -16.188 145.105 -15.45 146.356 -13.975 C 147.645 -12.519 148.29 -10.793 148.29 -8.795 C 148.29 -8.701 148.271 -8.413 148.233 -7.928 L 135.939 -7.928 C 136.126 -6.528 136.722 -5.408 137.728 -4.568 C 138.738 -3.728 139.999 -3.308 141.513 -3.308 C 143.639 -3.308 145.141 -4.102 146.019 -5.688 L 147.642 -4.735 C 147.027 -3.728 146.182 -2.939 145.109 -2.368 C 144.036 -1.799 142.827 -1.515 141.482 -1.515 C 139.28 -1.515 137.488 -2.204 136.105 -3.584 C 134.726 -4.966 134.036 -6.722 134.036 -8.851 C 134.036 -10.96 134.717 -12.706 136.079 -14.088 C 137.441 -15.488 139.196 -16.188 141.342 -16.188 Z M 141.342 -14.395 C 139.887 -14.395 138.669 -13.964 137.689 -13.104 C 136.709 -12.246 136.126 -11.118 135.939 -9.718 L 146.382 -9.718 C 146.178 -11.211 145.609 -12.36 144.676 -13.165 C 143.705 -13.985 142.593 -14.395 141.342 -14.395 Z M 160.748 -18.091 L 153.468 -18.091 L 153.468 -19.715 L 160.748 -19.715 Z M 153.074 -5.071 L 161.422 -15.851 L 162.988 -15.851 L 162.988 -1.851 L 161.142 -1.851 L 161.142 -12.631 L 152.794 -1.851 L 151.228 -1.851 L 151.228 -15.851 L 153.074 -15.851 Z M 178.668 -15.851 L 178.668 -3.645 L 180.628 -3.645 L 180.628 1.902 L 178.782 1.902 L 178.782 -1.851 L 167.354 -1.851 L 167.354 1.902 L 165.508 1.902 L 165.508 -3.645 L 167.214 -3.645 C 168.168 -4.914 168.645 -6.677 168.645 -8.935 L 168.645 -15.851 L 178.668 -15.851 Z M 169.454 -3.645 L 176.822 -3.645 L 176.822 -14.058 L 170.491 -14.058 L 170.491 -8.935 C 170.491 -6.77 170.145 -5.007 169.454 -3.645 Z"/>
</svg>